<?xml version="1.0" encoding="UTF-8" standalone="no"?>
<!DOCTYPE svg PUBLIC "-//W3C//DTD SVG 1.1//EN"
 "http://www.w3.org/Graphics/SVG/1.1/DTD/svg11.dtd">
<!-- Generated by graphviz version 2.43.0 (0)
 -->
<!-- Title: repo_weaver_architecture Pages: 1 -->
<svg width="2769pt" height="659pt"
 viewBox="0.00 0.00 2769.00 659.29" xmlns="http://www.w3.org/2000/svg" xmlns:xlink="http://www.w3.org/1999/xlink">
<g id="graph0" class="graph" transform="scale(1 1) rotate(0) translate(4 655.29)">
<title>repo_weaver_architecture</title>
<polygon fill="white" stroke="transparent" points="-4,4 -4,-655.29 2765,-655.29 2765,4 -4,4"/>
<text text-anchor="middle" x="1380.5" y="-633.69" font-family="Helvetica,sans-Serif" font-size="17.00">repo&#45;weaver architecture &amp; data flow</text>
<text text-anchor="middle" x="1380.5" y="-614.69" font-family="Helvetica,sans-Serif" font-size="17.00">deterministic git front&#45;end &#160;→ &#160;subprocess boundary &#160;→ &#160;external LLM engine (wiki&#45;weaver)</text>
<g id="clust1" class="cluster">
<title>cluster_repoweaver</title>
<polygon fill="#eaf2fc" stroke="#4a78b5" stroke-width="2" points="251,-160.29 251,-504.29 814,-504.29 814,-160.29 251,-160.29"/>
<text text-anchor="middle" x="447" y="-489.89" font-family="Helvetica,sans-Serif" font-weight="bold" font-size="13.00">repo&#45;weaver &#160;&#160;(Python · deterministic · 0 LLM calls)</text>
</g>
<g id="clust2" class="cluster">
<title>cluster_wikiweaver</title>
<polygon fill="#f3ecf9" stroke="#8a5fb5" stroke-width="2" points="1352.5,-248.29 1352.5,-328.29 2388,-328.29 2388,-248.29 1352.5,-248.29"/>
<text text-anchor="middle" x="1548.5" y="-313.89" font-family="Helvetica,sans-Serif" font-weight="bold" font-size="13.00">wiki&#45;weaver &#160;&#160;(external ENGINE · all LLM synthesis)</text>
</g>
<g id="clust3" class="cluster">
<title>cluster_legend</title>
<polygon fill="#ffffff" stroke="#999999" points="8,-512.29 8,-597.29 2193,-597.29 2193,-512.29 8,-512.29"/>
<text text-anchor="middle" x="40.5" y="-583.69" font-family="Helvetica,sans-Serif" font-weight="bold" font-size="12.00">Legend</text>
</g>
<!-- git_repos -->
<g id="node1" class="node">
<title>git_repos</title>
<path fill="#f5f5f5" stroke="#999999" d="M109.5,-465.27C109.5,-467.35 96.28,-469.04 80,-469.04 63.72,-469.04 50.5,-467.35 50.5,-465.27 50.5,-465.27 50.5,-431.31 50.5,-431.31 50.5,-429.23 63.72,-427.54 80,-427.54 96.28,-427.54 109.5,-429.23 109.5,-431.31 109.5,-431.31 109.5,-465.27 109.5,-465.27"/>
<path fill="none" stroke="#999999" d="M109.5,-465.27C109.5,-463.19 96.28,-461.5 80,-461.5 63.72,-461.5 50.5,-463.19 50.5,-465.27"/>
<text text-anchor="middle" x="80" y="-451.29" font-family="Helvetica,sans-Serif" font-size="10.00">git repos</text>
<text text-anchor="middle" x="80" y="-440.29" font-family="Helvetica,sans-Serif" font-size="10.00">(INPUT)</text>
</g>
<!-- gitio -->
<g id="node5" class="node">
<title>gitio</title>
<polygon fill="#dae8fc" stroke="#6c8ebf" points="445,-474.29 261,-474.29 261,-422.29 445,-422.29 445,-474.29"/>
<text text-anchor="middle" x="353" y="-462.29" font-family="Helvetica,sans-Serif" font-size="10.00">lib/gitio.py</text>
<text text-anchor="middle" x="353" y="-451.29" font-family="Helvetica,sans-Serif" font-size="10.00">git + gh plumbing</text>
<text text-anchor="middle" x="353" y="-440.29" font-family="Helvetica,sans-Serif" font-size="10.00">(fetch / fast&#45;forward staleness,</text>
<text text-anchor="middle" x="353" y="-429.29" font-family="Helvetica,sans-Serif" font-size="10.00">gh retry/backoff, discover_repos())</text>
</g>
<!-- git_repos&#45;&gt;gitio -->
<g id="edge1" class="edge">
<title>git_repos&#45;&gt;gitio</title>
<path fill="none" stroke="#555555" d="M109.75,-448.29C143.2,-448.29 200.29,-448.29 250.66,-448.29"/>
<polygon fill="#555555" stroke="#555555" points="250.96,-451.79 260.96,-448.29 250.96,-444.79 250.96,-451.79"/>
<text text-anchor="middle" x="201.5" y="-461.09" font-family="Helvetica,sans-Serif" font-size="9.00">git / gh</text>
<text text-anchor="middle" x="201.5" y="-451.09" font-family="Helvetica,sans-Serif" font-size="9.00">(fetch, ff)</text>
</g>
<!-- cli -->
<g id="node2" class="node">
<title>cli</title>
<polygon fill="#dae8fc" stroke="#6c8ebf" points="447,-389.79 259,-389.79 259,-326.79 447,-326.79 447,-389.79"/>
<text text-anchor="middle" x="353" y="-377.79" font-family="Helvetica,sans-Serif" font-size="10.00">cli.py</text>
<text text-anchor="middle" x="353" y="-366.79" font-family="Helvetica,sans-Serif" font-size="10.00">thin CLI:</text>
<text text-anchor="middle" x="353" y="-355.79" font-family="Helvetica,sans-Serif" font-size="10.00">init / weave / ask /</text>
<text text-anchor="middle" x="353" y="-344.79" font-family="Helvetica,sans-Serif" font-size="10.00">replay / doctor / sync /</text>
<text text-anchor="middle" x="353" y="-333.79" font-family="Helvetica,sans-Serif" font-size="10.00">discover / build&#45;dashboard / update</text>
</g>
<!-- weave -->
<g id="node3" class="node">
<title>weave</title>
<polygon fill="#dae8fc" stroke="#6c8ebf" points="806,-305.79 588,-305.79 588,-242.79 806,-242.79 806,-305.79"/>
<text text-anchor="middle" x="697" y="-293.79" font-family="Helvetica,sans-Serif" font-size="10.00">lib/weave.py</text>
<text text-anchor="middle" x="697" y="-282.79" font-family="Helvetica,sans-Serif" font-size="10.00">weave · weave_multi · replay_windows</text>
<text text-anchor="middle" x="697" y="-271.79" font-family="Helvetica,sans-Serif" font-size="10.00">(windowed, incremental/staggered, retry,</text>
<text text-anchor="middle" x="697" y="-260.79" font-family="Helvetica,sans-Serif" font-size="10.00">strand&#45;rescue, dedup, fetch&#45;or&#45;warn)</text>
<text text-anchor="middle" x="697" y="-249.79" font-family="Helvetica,sans-Serif" font-size="10.00">+ sync.py: per&#45;repo watermark replay</text>
</g>
<!-- cli&#45;&gt;weave -->
<g id="edge4" class="edge">
<title>cli&#45;&gt;weave</title>
<path fill="none" stroke="#555555" d="M447,-335.45C487.37,-325.53 535.13,-313.8 577.96,-303.28"/>
<polygon fill="#555555" stroke="#555555" points="579,-306.63 587.87,-300.85 577.33,-299.83 579,-306.63"/>
<text text-anchor="middle" x="517.5" y="-328.09" font-family="Helvetica,sans-Serif" font-size="9.00">weave</text>
</g>
<!-- materialize -->
<g id="node4" class="node">
<title>materialize</title>
<polygon fill="#dae8fc" stroke="#6c8ebf" points="797.5,-474.29 596.5,-474.29 596.5,-422.29 797.5,-422.29 797.5,-474.29"/>
<text text-anchor="middle" x="697" y="-462.29" font-family="Helvetica,sans-Serif" font-size="10.00">lib/materialize.py</text>
<text text-anchor="middle" x="697" y="-451.29" font-family="Helvetica,sans-Serif" font-size="10.00">git history → source docs</text>
<text text-anchor="middle" x="697" y="-440.29" font-family="Helvetica,sans-Serif" font-size="10.00">(change digests, Notable Commits,</text>
<text text-anchor="middle" x="697" y="-429.29" font-family="Helvetica,sans-Serif" font-size="10.00">module snapshots, owner__repo files)</text>
</g>
<!-- cli&#45;&gt;materialize -->
<g id="edge5" class="edge">
<title>cli&#45;&gt;materialize</title>
<path fill="none" stroke="#555555" stroke-dasharray="1,5" d="M447,-382.76C490.31,-394.16 542.11,-407.79 587.22,-419.66"/>
<polygon fill="#555555" stroke="#555555" points="586.47,-423.09 597.03,-422.25 588.25,-416.32 586.47,-423.09"/>
<text text-anchor="middle" x="517.5" y="-411.09" font-family="Helvetica,sans-Serif" font-size="9.00">weave</text>
</g>
<!-- updater -->
<g id="node6" class="node">
<title>updater</title>
<polygon fill="#dae8fc" stroke="#6c8ebf" points="788.5,-390.29 605.5,-390.29 605.5,-338.29 788.5,-338.29 788.5,-390.29"/>
<text text-anchor="middle" x="697" y="-378.29" font-family="Helvetica,sans-Serif" font-size="10.00">lib/updater.py</text>
<text text-anchor="middle" x="697" y="-367.29" font-family="Helvetica,sans-Serif" font-size="10.00">uv reinstall ladder (3 rungs)</text>
<text text-anchor="middle" x="697" y="-356.29" font-family="Helvetica,sans-Serif" font-size="10.00">+ PEP 610 direct_url.json verify</text>
<text text-anchor="middle" x="697" y="-345.29" font-family="Helvetica,sans-Serif" font-size="10.00">+ wiki&#45;weaver drift check (doctor)</text>
</g>
<!-- cli&#45;&gt;updater -->
<g id="edge6" class="edge">
<title>cli&#45;&gt;updater</title>
<path fill="none" stroke="#555555" d="M447.31,-350.2C459.31,-349.41 471.44,-348.74 483,-348.29 513.64,-347.1 521.38,-346.59 552,-348.29 566.08,-349.07 580.9,-350.28 595.46,-351.68"/>
<polygon fill="#555555" stroke="#555555" points="595.19,-355.17 605.48,-352.69 595.88,-348.21 595.19,-355.17"/>
<text text-anchor="middle" x="517.5" y="-361.09" font-family="Helvetica,sans-Serif" font-size="9.00">update u00b7</text>
<text text-anchor="middle" x="517.5" y="-351.09" font-family="Helvetica,sans-Serif" font-size="9.00">doctor (drift)</text>
</g>
<!-- ww_cli -->
<g id="node9" class="node">
<title>ww_cli</title>
<polygon fill="#e1d5e7" stroke="#9673a6" points="1455.5,-292.29 1360.5,-292.29 1360.5,-256.29 1455.5,-256.29 1455.5,-292.29"/>
<text text-anchor="middle" x="1408" y="-271.79" font-family="Helvetica,sans-Serif" font-size="10.00">wiki&#45;weaver CLI</text>
</g>
<!-- cli&#45;&gt;ww_cli -->
<g id="edge15" class="edge">
<title>cli&#45;&gt;ww_cli</title>
<path fill="none" stroke="#b85450" stroke-width="2.6" d="M429.92,-326.6C436.29,-321.82 442.14,-316.41 447,-310.29 487.5,-259.31 433.62,-210.72 483,-168.29 604.59,-63.81 681.88,-141.08 842,-133.29 1028.65,-124.21 1087.21,-99.6 1261,-168.29 1303.47,-185.08 1344.93,-217.13 1372.74,-241.61"/>
<polygon fill="#b85450" stroke="#b85450" stroke-width="2.6" points="1370.43,-244.24 1380.22,-248.29 1375.1,-239.02 1370.43,-244.24"/>
<text text-anchor="middle" x="912" y="-146.09" font-family="Helvetica,sans-Serif" font-size="9.00" fill="#a02020"> &#160;subprocess:</text>
<text text-anchor="middle" x="912" y="-136.09" font-family="Helvetica,sans-Serif" font-size="9.00" fill="#a02020"> &#160;wiki&#45;weaver ask &#160;</text>
</g>
<!-- cli&#45;&gt;ww_cli -->
<g id="edge17" class="edge">
<title>cli&#45;&gt;ww_cli</title>
<path fill="none" stroke="#b85450" stroke-width="2.6" d="M416.29,-326.75C426.6,-321.35 437.14,-315.73 447,-310.29 510.67,-275.16 518.27,-247.92 588,-227.29 864.46,-145.49 1215.81,-222.45 1350.75,-258.23"/>
<polygon fill="#b85450" stroke="#b85450" stroke-width="2.6" points="1341.91,-258.88 1352.5,-258.84 1344.19,-252.27 1341.91,-258.88"/>
<text text-anchor="middle" x="912" y="-237.09" font-family="Helvetica,sans-Serif" font-size="9.00" fill="#a02020"> &#160;subprocess:</text>
<text text-anchor="middle" x="912" y="-227.09" font-family="Helvetica,sans-Serif" font-size="9.00" fill="#a02020"> &#160;wiki&#45;weaver build&#45;dashboard</text>
<text text-anchor="middle" x="912" y="-217.09" font-family="Helvetica,sans-Serif" font-size="9.00" fill="#a02020"> &#160;&#45;&#45;group&#45;by repos</text>
<text text-anchor="middle" x="912" y="-207.09" font-family="Helvetica,sans-Serif" font-size="9.00" fill="#a02020"> &#160;&#45;&#45;group&#45;link&#45;template</text>
<text text-anchor="middle" x="912" y="-197.09" font-family="Helvetica,sans-Serif" font-size="9.00" fill="#a02020"> &#160;https://github.com/{group} &#160;</text>
</g>
<!-- weave&#45;&gt;ww_cli -->
<g id="edge14" class="edge">
<title>weave&#45;&gt;ww_cli</title>
<path fill="none" stroke="#b85450" stroke-width="2.6" d="M806.07,-274.29C958.65,-274.29 1231.8,-274.29 1349.95,-274.29"/>
<polygon fill="#b85450" stroke="#b85450" stroke-width="2.6" points="1342.5,-277.79 1352.5,-274.29 1342.5,-270.79 1342.5,-277.79"/>
<text text-anchor="middle" x="1092.5" y="-287.09" font-family="Helvetica,sans-Serif" font-size="9.00" fill="#a02020"> &#160;subprocess:</text>
<text text-anchor="middle" x="1092.5" y="-277.09" font-family="Helvetica,sans-Serif" font-size="9.00" fill="#a02020"> &#160;wiki&#45;weaver ingest &#160;</text>
</g>
<!-- inbox -->
<g id="node13" class="node">
<title>inbox</title>
<path fill="#ffe6cc" stroke="#d79b00" d="M1162,-458.27C1162,-460.35 1130.85,-462.04 1092.5,-462.04 1054.15,-462.04 1023,-460.35 1023,-458.27 1023,-458.27 1023,-424.31 1023,-424.31 1023,-422.23 1054.15,-420.54 1092.5,-420.54 1130.85,-420.54 1162,-422.23 1162,-424.31 1162,-424.31 1162,-458.27 1162,-458.27"/>
<path fill="none" stroke="#d79b00" d="M1162,-458.27C1162,-456.19 1130.85,-454.5 1092.5,-454.5 1054.15,-454.5 1023,-456.19 1023,-458.27"/>
<text text-anchor="middle" x="1092.5" y="-444.29" font-family="Helvetica,sans-Serif" font-size="10.00">corpus/_inbox/*.md</text>
<text text-anchor="middle" x="1092.5" y="-433.29" font-family="Helvetica,sans-Serif" font-size="10.00">materialized source docs</text>
</g>
<!-- materialize&#45;&gt;inbox -->
<g id="edge3" class="edge">
<title>materialize&#45;&gt;inbox</title>
<path fill="none" stroke="#555555" d="M797.55,-446.52C864.3,-445.33 950.99,-443.79 1012.9,-442.69"/>
<polygon fill="#555555" stroke="#555555" points="1013.06,-446.19 1023,-442.51 1012.94,-439.19 1013.06,-446.19"/>
<text text-anchor="middle" x="912" y="-448.09" font-family="Helvetica,sans-Serif" font-size="9.00">writes source docs</text>
</g>
<!-- gitio&#45;&gt;materialize -->
<g id="edge2" class="edge">
<title>gitio&#45;&gt;materialize</title>
<path fill="none" stroke="#555555" d="M445.2,-448.29C488.52,-448.29 540.66,-448.29 586.14,-448.29"/>
<polygon fill="#555555" stroke="#555555" points="586.34,-451.79 596.34,-448.29 586.34,-444.79 586.34,-451.79"/>
<text text-anchor="middle" x="517.5" y="-451.09" font-family="Helvetica,sans-Serif" font-size="9.00">commit history</text>
</g>
<!-- updater&#45;&gt;ww_cli -->
<g id="edge16" class="edge">
<title>updater&#45;&gt;ww_cli</title>
<path fill="none" stroke="#b85450" stroke-width="2.6" d="M788.88,-355.34C900.34,-344.01 1094.94,-323.08 1261,-299.29 1290.57,-295.05 1323.37,-289.52 1350.37,-284.73"/>
<polygon fill="#b85450" stroke="#b85450" stroke-width="2.6" points="1344.35,-290.71 1352.5,-283.93 1341.91,-284.15 1344.35,-290.71"/>
<text text-anchor="middle" x="1092.5" y="-342.09" font-family="Helvetica,sans-Serif" font-size="9.00" fill="#a02020"> &#160;subprocess:</text>
<text text-anchor="middle" x="1092.5" y="-332.09" font-family="Helvetica,sans-Serif" font-size="9.00" fill="#a02020"> &#160;wiki&#45;weaver update &#160;</text>
</g>
<!-- schema -->
<g id="node7" class="node">
<title>schema</title>
<polygon fill="#fff2cc" stroke="#d6b656" points="436.5,-294.29 263.5,-294.29 263.5,-242.29 442.5,-242.29 442.5,-288.29 436.5,-294.29"/>
<polyline fill="none" stroke="#d6b656" points="436.5,-294.29 436.5,-288.29 "/>
<polyline fill="none" stroke="#d6b656" points="442.5,-288.29 436.5,-288.29 "/>
<text text-anchor="middle" x="353" y="-282.29" font-family="Helvetica,sans-Serif" font-size="10.00">policy/schema.md</text>
<text text-anchor="middle" x="353" y="-271.29" font-family="Helvetica,sans-Serif" font-size="10.00">AUTHORED concept&#45;primary</text>
<text text-anchor="middle" x="353" y="-260.29" font-family="Helvetica,sans-Serif" font-size="10.00">synthesis schema</text>
<text text-anchor="middle" x="353" y="-249.29" font-family="Helvetica,sans-Serif" font-size="10.00">(attribution + repo&#45;identity rules)</text>
</g>
<!-- schema&#45;&gt;ww_cli -->
<g id="edge7" class="edge">
<title>schema&#45;&gt;ww_cli</title>
<path fill="none" stroke="#d6b656" stroke-dasharray="5,2" d="M428.74,-242C435.51,-237.51 441.78,-232.31 447,-226.29 484.61,-182.94 438.84,-138.94 483,-102.29 654.08,39.69 760.11,-53.43 982,-67.29 1106.73,-75.08 1151.08,-42.83 1261,-102.29 1323.35,-136.02 1370.52,-208.03 1392.8,-247.33"/>
<polygon fill="#d6b656" stroke="#d6b656" points="1389.76,-249.07 1397.68,-256.12 1395.88,-245.67 1389.76,-249.07"/>
<text text-anchor="middle" x="912" y="-80.09" font-family="Helvetica,sans-Serif" font-size="9.00" fill="#b8860b">schema (policy)</text>
<text text-anchor="middle" x="912" y="-70.09" font-family="Helvetica,sans-Serif" font-size="9.00" fill="#b8860b">feeds engine</text>
</g>
<!-- eval -->
<g id="node8" class="node">
<title>eval</title>
<polygon fill="#d5e8d4" stroke="#82b366" points="434,-209.79 272,-209.79 272,-168.79 434,-168.79 434,-209.79"/>
<text text-anchor="middle" x="353" y="-197.79" font-family="Helvetica,sans-Serif" font-size="10.00">eval/ &#160;(NO LLM)</text>
<text text-anchor="middle" x="353" y="-186.79" font-family="Helvetica,sans-Serif" font-size="10.00">grade.py · trace_grounding.py</text>
<text text-anchor="middle" x="353" y="-175.79" font-family="Helvetica,sans-Serif" font-size="10.00">coverage_check.py</text>
</g>
<!-- ww_lib -->
<g id="node10" class="node">
<title>ww_lib</title>
<polygon fill="#e1d5e7" stroke="#9673a6" points="1842,-297.29 1733,-297.29 1733,-261.29 1842,-261.29 1842,-297.29"/>
<text text-anchor="middle" x="1787.5" y="-276.79" font-family="Helvetica,sans-Serif" font-size="10.00">lib (engine_runner)</text>
</g>
<!-- ww_cli&#45;&gt;ww_lib -->
<g id="edge10" class="edge">
<title>ww_cli&#45;&gt;ww_lib</title>
<path fill="none" stroke="#9673a6" d="M1455.67,-274.91C1522.83,-275.8 1646.97,-277.44 1722.61,-278.44"/>
<polygon fill="#9673a6" stroke="#9673a6" points="1722.9,-281.95 1732.95,-278.58 1723,-274.95 1722.9,-281.95"/>
</g>
<!-- dashboard -->
<g id="node15" class="node">
<title>dashboard</title>
<polygon fill="#e8f4e8" stroke="#4a8a4a" points="1835,-161.29 1734,-161.29 1734,-109.29 1841,-109.29 1841,-155.29 1835,-161.29"/>
<polyline fill="none" stroke="#4a8a4a" points="1835,-161.29 1835,-155.29 "/>
<polyline fill="none" stroke="#4a8a4a" points="1841,-155.29 1835,-155.29 "/>
<text text-anchor="middle" x="1787.5" y="-149.29" font-family="Helvetica,sans-Serif" font-size="10.00">dashboard.html</text>
<text text-anchor="middle" x="1787.5" y="-138.29" font-family="Helvetica,sans-Serif" font-size="10.00">(self&#45;contained)</text>
<text text-anchor="middle" x="1787.5" y="-127.29" font-family="Helvetica,sans-Serif" font-size="10.00">grouped by repos:</text>
<text text-anchor="middle" x="1787.5" y="-116.29" font-family="Helvetica,sans-Serif" font-size="10.00">GitHub group links</text>
</g>
<!-- ww_cli&#45;&gt;dashboard -->
<g id="edge18" class="edge">
<title>ww_cli&#45;&gt;dashboard</title>
<path fill="none" stroke="#4a8a4a" stroke-width="2" d="M1443.47,-256.22C1472.66,-241.35 1515.89,-220.35 1555,-205.29 1611.15,-183.67 1676.98,-164.32 1724.06,-151.47"/>
<polygon fill="#4a8a4a" stroke="#4a8a4a" stroke-width="2" points="1725.07,-154.82 1733.81,-148.83 1723.24,-148.07 1725.07,-154.82"/>
<text text-anchor="middle" x="1607.5" y="-218.09" font-family="Helvetica,sans-Serif" font-size="9.00" fill="#2a5a2a">HTML output</text>
<text text-anchor="middle" x="1607.5" y="-208.09" font-family="Helvetica,sans-Serif" font-size="9.00" fill="#2a5a2a">(repo&#45;branded)</text>
</g>
<!-- user -->
<g id="node16" class="node">
<title>user</title>
<ellipse fill="#d5e8d4" stroke="#82b366" cx="1787.5" cy="-211.29" rx="27" ry="18"/>
<text text-anchor="middle" x="1787.5" y="-208.79" font-family="Helvetica,sans-Serif" font-size="10.00">user</text>
</g>
<!-- ww_cli&#45;&gt;user -->
<g id="edge19" class="edge">
<title>ww_cli&#45;&gt;user</title>
<path fill="none" stroke="#b85450" stroke-width="2" d="M1455.67,-266.5C1532.07,-253.75 1682.17,-228.7 1750.77,-217.25"/>
<polygon fill="#b85450" stroke="#b85450" stroke-width="2" points="1751.77,-220.63 1761.06,-215.54 1750.62,-213.73 1751.77,-220.63"/>
<text text-anchor="middle" x="1607.5" y="-251.09" font-family="Helvetica,sans-Serif" font-size="9.00" fill="#a02020">cited answer</text>
</g>
<!-- ww_session -->
<g id="node11" class="node">
<title>ww_session</title>
<polygon fill="#e1d5e7" stroke="#9673a6" points="2131,-297.79 2006,-297.79 2006,-256.79 2131,-256.79 2131,-297.79"/>
<text text-anchor="middle" x="2068.5" y="-285.79" font-family="Helvetica,sans-Serif" font-size="10.00">AmplifierSession +</text>
<text text-anchor="middle" x="2068.5" y="-274.79" font-family="Helvetica,sans-Serif" font-size="10.00">custom &#39;loop&#45;pipeline&#39;</text>
<text text-anchor="middle" x="2068.5" y="-263.79" font-family="Helvetica,sans-Serif" font-size="10.00">orchestrator</text>
</g>
<!-- ww_lib&#45;&gt;ww_session -->
<g id="edge11" class="edge">
<title>ww_lib&#45;&gt;ww_session</title>
<path fill="none" stroke="#9673a6" d="M1842.29,-278.9C1885.81,-278.59 1947.5,-278.15 1995.31,-277.81"/>
<polygon fill="#9673a6" stroke="#9673a6" points="1995.63,-281.31 2005.6,-277.73 1995.58,-274.31 1995.63,-281.31"/>
</g>
<!-- ww_dot -->
<g id="node12" class="node">
<title>ww_dot</title>
<polygon fill="#e1d5e7" stroke="#9673a6" points="2380,-297.79 2377,-301.79 2356,-301.79 2353,-297.79 2258,-297.79 2258,-256.79 2380,-256.79 2380,-297.79"/>
<text text-anchor="middle" x="2319" y="-285.79" font-family="Helvetica,sans-Serif" font-size="10.00">.dot pipelines</text>
<text text-anchor="middle" x="2319" y="-274.79" font-family="Helvetica,sans-Serif" font-size="10.00">init / ingest / ask / lint</text>
<text text-anchor="middle" x="2319" y="-263.79" font-family="Helvetica,sans-Serif" font-size="10.00">+ synthesize.dot</text>
</g>
<!-- ww_session&#45;&gt;ww_dot -->
<g id="edge12" class="edge">
<title>ww_session&#45;&gt;ww_dot</title>
<path fill="none" stroke="#9673a6" d="M2131.25,-277.29C2166.59,-277.29 2211.06,-277.29 2247.74,-277.29"/>
<polygon fill="#9673a6" stroke="#9673a6" points="2247.86,-280.79 2257.86,-277.29 2247.86,-273.79 2247.86,-280.79"/>
</g>
<!-- corpus -->
<g id="node14" class="node">
<title>corpus</title>
<path fill="#ffe6cc" stroke="#d79b00" d="M2761,-300.51C2761,-303.35 2727.61,-305.67 2686.5,-305.67 2645.39,-305.67 2612,-303.35 2612,-300.51 2612,-300.51 2612,-254.07 2612,-254.07 2612,-251.23 2645.39,-248.91 2686.5,-248.91 2727.61,-248.91 2761,-251.23 2761,-254.07 2761,-254.07 2761,-300.51 2761,-300.51"/>
<path fill="none" stroke="#d79b00" d="M2761,-300.51C2761,-297.66 2727.61,-295.35 2686.5,-295.35 2645.39,-295.35 2612,-297.66 2612,-300.51"/>
<text text-anchor="middle" x="2686.5" y="-285.79" font-family="Helvetica,sans-Serif" font-size="10.00">corpus/*.md concept pages</text>
<text text-anchor="middle" x="2686.5" y="-274.79" font-family="Helvetica,sans-Serif" font-size="10.00">+ corpus/_archive</text>
<text text-anchor="middle" x="2686.5" y="-263.79" font-family="Helvetica,sans-Serif" font-size="10.00">(OUTPUT)</text>
</g>
<!-- ww_dot&#45;&gt;corpus -->
<g id="edge13" class="edge">
<title>ww_dot&#45;&gt;corpus</title>
<path fill="none" stroke="#9673a6" d="M2380.35,-277.29C2440.72,-277.29 2534.06,-277.29 2601.61,-277.29"/>
<polygon fill="#9673a6" stroke="#9673a6" points="2601.8,-280.79 2611.8,-277.29 2601.8,-273.79 2601.8,-280.79"/>
<text text-anchor="middle" x="2496" y="-290.09" font-family="Helvetica,sans-Serif" font-size="9.00" fill="#6a4a86">loop&#45;pipeline runs synthesize.dot →</text>
<text text-anchor="middle" x="2496" y="-280.09" font-family="Helvetica,sans-Serif" font-size="9.00" fill="#6a4a86">writes concept pages + _archive</text>
</g>
<!-- inbox&#45;&gt;ww_cli -->
<g id="edge8" class="edge">
<title>inbox&#45;&gt;ww_cli</title>
<path fill="none" stroke="#d79b00" stroke-dasharray="5,2" d="M1162.05,-424.45C1193.23,-415.38 1230.01,-402.65 1261,-386.29 1306.25,-362.4 1352.04,-324.55 1379.97,-299.57"/>
<polygon fill="#d79b00" stroke="#d79b00" points="1382.64,-301.88 1387.7,-292.58 1377.94,-296.69 1382.64,-301.88"/>
<text text-anchor="middle" x="1232" y="-413.09" font-family="Helvetica,sans-Serif" font-size="9.00" fill="#b06a00">reads _inbox</text>
</g>
<!-- corpus&#45;&gt;eval -->
<g id="edge9" class="edge">
<title>corpus&#45;&gt;eval</title>
<path fill="none" stroke="#82b366" stroke-dasharray="1,5" d="M2612,-256.56C2471.08,-217.7 2152.6,-134.15 1879,-93.29 1409.64,-23.2 1288.26,-33.41 814,-16.29 666.34,-10.96 608.17,31.22 483,-47.29 436.06,-76.73 395.65,-127.87 373.11,-160.08"/>
<polygon fill="#82b366" stroke="#82b366" points="370.01,-158.4 367.23,-168.63 375.78,-162.37 370.01,-158.4"/>
<text text-anchor="middle" x="1607.5" y="-75.09" font-family="Helvetica,sans-Serif" font-size="9.00" fill="#5a8a3a">deterministic grading</text>
<text text-anchor="middle" x="1607.5" y="-65.09" font-family="Helvetica,sans-Serif" font-size="9.00" fill="#5a8a3a">(reads corpus, no LLM)</text>
</g>
<!-- lg_proc -->
<g id="node17" class="node">
<title>lg_proc</title>
<polygon fill="#dae8fc" stroke="#6c8ebf" points="144,-562.29 16,-562.29 16,-526.29 144,-526.29 144,-562.29"/>
<text text-anchor="middle" x="80" y="-547.09" font-family="Helvetica,sans-Serif" font-size="9.00">repo&#45;weaver component</text>
<text text-anchor="middle" x="80" y="-537.09" font-family="Helvetica,sans-Serif" font-size="9.00">(deterministic Python)</text>
</g>
<!-- lg_eng -->
<g id="node18" class="node">
<title>lg_eng</title>
<polygon fill="#e1d5e7" stroke="#9673a6" points="415,-562.29 291,-562.29 291,-526.29 415,-526.29 415,-562.29"/>
<text text-anchor="middle" x="353" y="-547.09" font-family="Helvetica,sans-Serif" font-size="9.00">wiki&#45;weaver component</text>
<text text-anchor="middle" x="353" y="-537.09" font-family="Helvetica,sans-Serif" font-size="9.00">(external LLM engine)</text>
</g>
<!-- lg_proc&#45;&gt;lg_eng -->
<!-- lg_store -->
<g id="node19" class="node">
<title>lg_store</title>
<path fill="#ffe6cc" stroke="#d79b00" d="M728,-559.02C728,-560.82 714.11,-562.29 697,-562.29 679.89,-562.29 666,-560.82 666,-559.02 666,-559.02 666,-529.56 666,-529.56 666,-527.76 679.89,-526.29 697,-526.29 714.11,-526.29 728,-527.76 728,-529.56 728,-529.56 728,-559.02 728,-559.02"/>
<path fill="none" stroke="#d79b00" d="M728,-559.02C728,-557.21 714.11,-555.74 697,-555.74 679.89,-555.74 666,-557.21 666,-559.02"/>
<text text-anchor="middle" x="697" y="-542.09" font-family="Helvetica,sans-Serif" font-size="9.00">data store</text>
</g>
<!-- lg_eng&#45;&gt;lg_store -->
<!-- lg_e1 -->
<g id="node20" class="node">
<title>lg_e1</title>
<polygon fill="#ffffff" stroke="transparent" points="1167,-562.29 1018,-562.29 1018,-526.29 1167,-526.29 1167,-562.29"/>
<text text-anchor="middle" x="1092.5" y="-542.09" font-family="Helvetica,sans-Serif" font-size="9.00">solid = in&#45;process Python call</text>
</g>
<!-- lg_store&#45;&gt;lg_e1 -->
<!-- lg_e2 -->
<g id="node21" class="node">
<title>lg_e2</title>
<polygon fill="#ffffff" stroke="transparent" points="1519,-562.29 1297,-562.29 1297,-526.29 1519,-526.29 1519,-562.29"/>
<text text-anchor="middle" x="1408" y="-542.09" font-family="Helvetica,sans-Serif" font-size="9.00" fill="#a02020">bold red = subprocess call to external engine</text>
</g>
<!-- lg_e1&#45;&gt;lg_e2 -->
<!-- lg_e3 -->
<g id="node22" class="node">
<title>lg_e3</title>
<polygon fill="#ffffff" stroke="transparent" points="1879,-562.29 1696,-562.29 1696,-526.29 1879,-526.29 1879,-562.29"/>
<text text-anchor="middle" x="1787.5" y="-542.09" font-family="Helvetica,sans-Serif" font-size="9.00">dashed = file feed (schema / _inbox)</text>
</g>
<!-- lg_e2&#45;&gt;lg_e3 -->
<!-- lg_note -->
<g id="node23" class="node">
<title>lg_note</title>
<polygon fill="#fffbe6" stroke="#d6b656" points="2179,-568.29 1952,-568.29 1952,-520.29 2185,-520.29 2185,-562.29 2179,-568.29"/>
<polyline fill="none" stroke="#d6b656" points="2179,-568.29 2179,-562.29 "/>
<polyline fill="none" stroke="#d6b656" points="2185,-562.29 2179,-562.29 "/>
<text text-anchor="middle" x="2068.5" y="-557.09" font-family="Helvetica,sans-Serif" font-size="9.00">repo&#45;weaver writes the SCHEMA (policy);</text>
<text text-anchor="middle" x="2068.5" y="-547.09" font-family="Helvetica,sans-Serif" font-size="9.00">wiki&#45;weaver provides the ENGINE (mechanism).</text>
<text text-anchor="middle" x="2068.5" y="-537.09" font-family="Helvetica,sans-Serif" font-size="9.00">repo&#45;weaver makes 0 LLM calls — all synthesis</text>
<text text-anchor="middle" x="2068.5" y="-527.09" font-family="Helvetica,sans-Serif" font-size="9.00">happens across the subprocess boundary.</text>
</g>
<!-- lg_e3&#45;&gt;lg_note -->
</g>
</svg>
