<?xml version="1.0" encoding="UTF-8" standalone="no"?>
<!DOCTYPE svg PUBLIC "-//W3C//DTD SVG 1.1//EN"
 "http://www.w3.org/Graphics/SVG/1.1/DTD/svg11.dtd">
<!-- Generated by graphviz version 2.43.0 (0)
 -->
<!-- Title: repo_weaver_architecture Pages: 1 -->
<svg width="2765pt" height="584pt"
 viewBox="0.00 0.00 2765.00 584.20" xmlns="http://www.w3.org/2000/svg" xmlns:xlink="http://www.w3.org/1999/xlink">
<g id="graph0" class="graph" transform="scale(1 1) rotate(0) translate(4 580.2)">
<title>repo_weaver_architecture</title>
<polygon fill="white" stroke="transparent" points="-4,4 -4,-580.2 2761,-580.2 2761,4 -4,4"/>
<text text-anchor="middle" x="1378.5" y="-558.6" font-family="Helvetica,sans-Serif" font-size="17.00">repo&#45;weaver architecture &amp; data flow</text>
<text text-anchor="middle" x="1378.5" y="-539.6" font-family="Helvetica,sans-Serif" font-size="17.00">deterministic git front&#45;end &#160;→ &#160;subprocess boundary &#160;→ &#160;external LLM engine (wiki&#45;weaver)</text>
<g id="clust1" class="cluster">
<title>cluster_repoweaver</title>
<polygon fill="#eaf2fc" stroke="#4a78b5" stroke-width="2" points="251,-85.2 251,-429.2 810,-429.2 810,-85.2 251,-85.2"/>
<text text-anchor="middle" x="447" y="-414.8" font-family="Helvetica,sans-Serif" font-weight="bold" font-size="13.00">repo&#45;weaver &#160;&#160;(Python · deterministic · 0 LLM calls)</text>
</g>
<g id="clust2" class="cluster">
<title>cluster_wikiweaver</title>
<polygon fill="#f3ecf9" stroke="#8a5fb5" stroke-width="2" points="1348.5,-184.2 1348.5,-264.2 2384,-264.2 2384,-184.2 1348.5,-184.2"/>
<text text-anchor="middle" x="1544.5" y="-249.8" font-family="Helvetica,sans-Serif" font-weight="bold" font-size="13.00">wiki&#45;weaver &#160;&#160;(external ENGINE · all LLM synthesis)</text>
</g>
<g id="clust3" class="cluster">
<title>cluster_legend</title>
<polygon fill="#ffffff" stroke="#999999" points="8,-437.2 8,-522.2 2189,-522.2 2189,-437.2 8,-437.2"/>
<text text-anchor="middle" x="40.5" y="-508.6" font-family="Helvetica,sans-Serif" font-weight="bold" font-size="12.00">Legend</text>
</g>
<!-- git_repos -->
<g id="node1" class="node">
<title>git_repos</title>
<path fill="#f5f5f5" stroke="#999999" d="M109.5,-390.18C109.5,-392.26 96.28,-393.95 80,-393.95 63.72,-393.95 50.5,-392.26 50.5,-390.18 50.5,-390.18 50.5,-356.22 50.5,-356.22 50.5,-354.14 63.72,-352.45 80,-352.45 96.28,-352.45 109.5,-354.14 109.5,-356.22 109.5,-356.22 109.5,-390.18 109.5,-390.18"/>
<path fill="none" stroke="#999999" d="M109.5,-390.18C109.5,-388.1 96.28,-386.4 80,-386.4 63.72,-386.4 50.5,-388.1 50.5,-390.18"/>
<text text-anchor="middle" x="80" y="-376.2" font-family="Helvetica,sans-Serif" font-size="10.00">git repos</text>
<text text-anchor="middle" x="80" y="-365.2" font-family="Helvetica,sans-Serif" font-size="10.00">(INPUT)</text>
</g>
<!-- gitio -->
<g id="node5" class="node">
<title>gitio</title>
<polygon fill="#dae8fc" stroke="#6c8ebf" points="443,-399.2 259,-399.2 259,-347.2 443,-347.2 443,-399.2"/>
<text text-anchor="middle" x="351" y="-387.2" font-family="Helvetica,sans-Serif" font-size="10.00">lib/gitio.py</text>
<text text-anchor="middle" x="351" y="-376.2" font-family="Helvetica,sans-Serif" font-size="10.00">git + gh plumbing</text>
<text text-anchor="middle" x="351" y="-365.2" font-family="Helvetica,sans-Serif" font-size="10.00">(fetch / fast&#45;forward staleness,</text>
<text text-anchor="middle" x="351" y="-354.2" font-family="Helvetica,sans-Serif" font-size="10.00">gh retry/backoff, discover_repos())</text>
</g>
<!-- git_repos&#45;&gt;gitio -->
<g id="edge1" class="edge">
<title>git_repos&#45;&gt;gitio</title>
<path fill="none" stroke="#555555" d="M109.53,-373.2C142.55,-373.2 198.77,-373.2 248.55,-373.2"/>
<polygon fill="#555555" stroke="#555555" points="248.73,-376.7 258.73,-373.2 248.73,-369.7 248.73,-376.7"/>
<text text-anchor="middle" x="201.5" y="-386" font-family="Helvetica,sans-Serif" font-size="9.00">git / gh</text>
<text text-anchor="middle" x="201.5" y="-376" font-family="Helvetica,sans-Serif" font-size="9.00">(fetch, ff)</text>
</g>
<!-- cli -->
<g id="node2" class="node">
<title>cli</title>
<polygon fill="#dae8fc" stroke="#6c8ebf" points="424,-314.7 278,-314.7 278,-251.7 424,-251.7 424,-314.7"/>
<text text-anchor="middle" x="351" y="-302.7" font-family="Helvetica,sans-Serif" font-size="10.00">cli.py</text>
<text text-anchor="middle" x="351" y="-291.7" font-family="Helvetica,sans-Serif" font-size="10.00">thin CLI:</text>
<text text-anchor="middle" x="351" y="-280.7" font-family="Helvetica,sans-Serif" font-size="10.00">init / weave / ask /</text>
<text text-anchor="middle" x="351" y="-269.7" font-family="Helvetica,sans-Serif" font-size="10.00">replay / doctor / sync /</text>
<text text-anchor="middle" x="351" y="-258.7" font-family="Helvetica,sans-Serif" font-size="10.00">discover / build&#45;dashboard</text>
</g>
<!-- weave -->
<g id="node3" class="node">
<title>weave</title>
<polygon fill="#dae8fc" stroke="#6c8ebf" points="802,-314.7 584,-314.7 584,-251.7 802,-251.7 802,-314.7"/>
<text text-anchor="middle" x="693" y="-302.7" font-family="Helvetica,sans-Serif" font-size="10.00">lib/weave.py</text>
<text text-anchor="middle" x="693" y="-291.7" font-family="Helvetica,sans-Serif" font-size="10.00">weave · weave_multi · replay_windows</text>
<text text-anchor="middle" x="693" y="-280.7" font-family="Helvetica,sans-Serif" font-size="10.00">(windowed, incremental/staggered, retry,</text>
<text text-anchor="middle" x="693" y="-269.7" font-family="Helvetica,sans-Serif" font-size="10.00">strand&#45;rescue, dedup, fetch&#45;or&#45;warn)</text>
<text text-anchor="middle" x="693" y="-258.7" font-family="Helvetica,sans-Serif" font-size="10.00">+ sync.py: per&#45;repo watermark replay</text>
</g>
<!-- cli&#45;&gt;weave -->
<g id="edge4" class="edge">
<title>cli&#45;&gt;weave</title>
<path fill="none" stroke="#555555" d="M424.2,-281.87C442.1,-281.59 461.25,-281.34 479,-281.2 509.65,-280.96 542.78,-281.08 573.57,-281.36"/>
<polygon fill="#555555" stroke="#555555" points="573.88,-284.86 583.92,-281.46 573.95,-277.86 573.88,-284.86"/>
<text text-anchor="middle" x="513.5" y="-284" font-family="Helvetica,sans-Serif" font-size="9.00">weave</text>
</g>
<!-- materialize -->
<g id="node4" class="node">
<title>materialize</title>
<polygon fill="#dae8fc" stroke="#6c8ebf" points="793.5,-399.2 592.5,-399.2 592.5,-347.2 793.5,-347.2 793.5,-399.2"/>
<text text-anchor="middle" x="693" y="-387.2" font-family="Helvetica,sans-Serif" font-size="10.00">lib/materialize.py</text>
<text text-anchor="middle" x="693" y="-376.2" font-family="Helvetica,sans-Serif" font-size="10.00">git history → source docs</text>
<text text-anchor="middle" x="693" y="-365.2" font-family="Helvetica,sans-Serif" font-size="10.00">(change digests, Notable Commits,</text>
<text text-anchor="middle" x="693" y="-354.2" font-family="Helvetica,sans-Serif" font-size="10.00">module snapshots, owner__repo files)</text>
</g>
<!-- cli&#45;&gt;materialize -->
<g id="edge5" class="edge">
<title>cli&#45;&gt;materialize</title>
<path fill="none" stroke="#555555" stroke-dasharray="1,5" d="M424.11,-302.29C470.44,-314.55 531.48,-330.71 583.6,-344.51"/>
<polygon fill="#555555" stroke="#555555" points="583,-347.97 593.56,-347.14 584.79,-341.2 583,-347.97"/>
<text text-anchor="middle" x="513.5" y="-336" font-family="Helvetica,sans-Serif" font-size="9.00">weave</text>
</g>
<!-- ww_cli -->
<g id="node8" class="node">
<title>ww_cli</title>
<polygon fill="#e1d5e7" stroke="#9673a6" points="1451.5,-228.2 1356.5,-228.2 1356.5,-192.2 1451.5,-192.2 1451.5,-228.2"/>
<text text-anchor="middle" x="1404" y="-207.7" font-family="Helvetica,sans-Serif" font-size="10.00">wiki&#45;weaver CLI</text>
</g>
<!-- cli&#45;&gt;ww_cli -->
<g id="edge14" class="edge">
<title>cli&#45;&gt;ww_cli</title>
<path fill="none" stroke="#b85450" stroke-width="2.6" d="M424.13,-265.4C469.68,-254.96 529.92,-242.59 584,-236.2 868.67,-202.55 1212.61,-205.77 1346.15,-208.66"/>
<polygon fill="#b85450" stroke="#b85450" stroke-width="2.6" points="1338.21,-211.41 1348.5,-208.88 1338.88,-204.44 1338.21,-211.41"/>
<text text-anchor="middle" x="908" y="-227" font-family="Helvetica,sans-Serif" font-size="9.00" fill="#a02020"> &#160;subprocess:</text>
<text text-anchor="middle" x="908" y="-217" font-family="Helvetica,sans-Serif" font-size="9.00" fill="#a02020"> &#160;wiki&#45;weaver ask &#160;</text>
</g>
<!-- cli&#45;&gt;ww_cli -->
<g id="edge15" class="edge">
<title>cli&#45;&gt;ww_cli</title>
<path fill="none" stroke="#b85450" stroke-width="2.6" d="M424.23,-252.72C441.97,-245.81 461.03,-238.85 479,-233.2 524.77,-218.82 537.26,-219.01 584,-208.2 696.72,-182.13 723.01,-163.94 838,-151.2 899.84,-144.35 915.93,-146.91 978,-151.2 1110.74,-160.37 1265.13,-185.46 1346.36,-199.8"/>
<polygon fill="#b85450" stroke="#b85450" stroke-width="2.6" points="1337.91,-200.46 1348.5,-200.58 1340.29,-193.87 1337.91,-200.46"/>
<text text-anchor="middle" x="908" y="-194" font-family="Helvetica,sans-Serif" font-size="9.00" fill="#a02020"> &#160;subprocess:</text>
<text text-anchor="middle" x="908" y="-184" font-family="Helvetica,sans-Serif" font-size="9.00" fill="#a02020"> &#160;wiki&#45;weaver build&#45;dashboard</text>
<text text-anchor="middle" x="908" y="-174" font-family="Helvetica,sans-Serif" font-size="9.00" fill="#a02020"> &#160;&#45;&#45;group&#45;by repos</text>
<text text-anchor="middle" x="908" y="-164" font-family="Helvetica,sans-Serif" font-size="9.00" fill="#a02020"> &#160;&#45;&#45;group&#45;link&#45;template</text>
<text text-anchor="middle" x="908" y="-154" font-family="Helvetica,sans-Serif" font-size="9.00" fill="#a02020"> &#160;https://github.com/{group} &#160;</text>
</g>
<!-- weave&#45;&gt;ww_cli -->
<g id="edge13" class="edge">
<title>weave&#45;&gt;ww_cli</title>
<path fill="none" stroke="#b85450" stroke-width="2.6" d="M802.25,-272.98C915.65,-262.14 1098.92,-244.26 1257,-227.2 1286.47,-224.02 1319.26,-220.22 1346.28,-217.03"/>
<polygon fill="#b85450" stroke="#b85450" stroke-width="2.6" points="1341.35,-223.65 1348.5,-215.83 1338.04,-217.49 1341.35,-223.65"/>
<text text-anchor="middle" x="1088.5" y="-264" font-family="Helvetica,sans-Serif" font-size="9.00" fill="#a02020"> &#160;subprocess:</text>
<text text-anchor="middle" x="1088.5" y="-254" font-family="Helvetica,sans-Serif" font-size="9.00" fill="#a02020"> &#160;wiki&#45;weaver ingest &#160;</text>
</g>
<!-- inbox -->
<g id="node12" class="node">
<title>inbox</title>
<path fill="#ffe6cc" stroke="#d79b00" d="M1158,-381.18C1158,-383.26 1126.85,-384.95 1088.5,-384.95 1050.15,-384.95 1019,-383.26 1019,-381.18 1019,-381.18 1019,-347.22 1019,-347.22 1019,-345.14 1050.15,-343.45 1088.5,-343.45 1126.85,-343.45 1158,-345.14 1158,-347.22 1158,-347.22 1158,-381.18 1158,-381.18"/>
<path fill="none" stroke="#d79b00" d="M1158,-381.18C1158,-379.1 1126.85,-377.4 1088.5,-377.4 1050.15,-377.4 1019,-379.1 1019,-381.18"/>
<text text-anchor="middle" x="1088.5" y="-367.2" font-family="Helvetica,sans-Serif" font-size="10.00">corpus/_inbox/*.md</text>
<text text-anchor="middle" x="1088.5" y="-356.2" font-family="Helvetica,sans-Serif" font-size="10.00">materialized source docs</text>
</g>
<!-- materialize&#45;&gt;inbox -->
<g id="edge3" class="edge">
<title>materialize&#45;&gt;inbox</title>
<path fill="none" stroke="#555555" d="M793.55,-370.92C860.3,-369.4 946.99,-367.41 1008.9,-366"/>
<polygon fill="#555555" stroke="#555555" points="1009.08,-369.49 1019,-365.77 1008.92,-362.5 1009.08,-369.49"/>
<text text-anchor="middle" x="908" y="-372" font-family="Helvetica,sans-Serif" font-size="9.00">writes source docs</text>
</g>
<!-- gitio&#45;&gt;materialize -->
<g id="edge2" class="edge">
<title>gitio&#45;&gt;materialize</title>
<path fill="none" stroke="#555555" d="M443.11,-373.2C485.91,-373.2 537.27,-373.2 582.19,-373.2"/>
<polygon fill="#555555" stroke="#555555" points="582.26,-376.7 592.26,-373.2 582.26,-369.7 582.26,-376.7"/>
<text text-anchor="middle" x="513.5" y="-376" font-family="Helvetica,sans-Serif" font-size="9.00">commit history</text>
</g>
<!-- schema -->
<g id="node6" class="node">
<title>schema</title>
<polygon fill="#fff2cc" stroke="#d6b656" points="434.5,-219.2 261.5,-219.2 261.5,-167.2 440.5,-167.2 440.5,-213.2 434.5,-219.2"/>
<polyline fill="none" stroke="#d6b656" points="434.5,-219.2 434.5,-213.2 "/>
<polyline fill="none" stroke="#d6b656" points="440.5,-213.2 434.5,-213.2 "/>
<text text-anchor="middle" x="351" y="-207.2" font-family="Helvetica,sans-Serif" font-size="10.00">policy/schema.md</text>
<text text-anchor="middle" x="351" y="-196.2" font-family="Helvetica,sans-Serif" font-size="10.00">AUTHORED concept&#45;primary</text>
<text text-anchor="middle" x="351" y="-185.2" font-family="Helvetica,sans-Serif" font-size="10.00">synthesis schema</text>
<text text-anchor="middle" x="351" y="-174.2" font-family="Helvetica,sans-Serif" font-size="10.00">(attribution + repo&#45;identity rules)</text>
</g>
<!-- schema&#45;&gt;ww_cli -->
<g id="edge6" class="edge">
<title>schema&#45;&gt;ww_cli</title>
<path fill="none" stroke="#d6b656" stroke-dasharray="5,2" d="M420.94,-166.98C428.85,-162.4 436.42,-157.15 443,-151.2 466.35,-130.09 452.45,-107.12 479,-90.2 666.48,29.29 756.11,-41.34 978,-55.2 1102.73,-62.99 1142.21,-40.8 1257,-90.2 1307.14,-111.78 1353.77,-155.98 1380.28,-184.3"/>
<polygon fill="#d6b656" stroke="#d6b656" points="1377.86,-186.84 1387.2,-191.83 1383.01,-182.1 1377.86,-186.84"/>
<text text-anchor="middle" x="908" y="-68" font-family="Helvetica,sans-Serif" font-size="9.00" fill="#b8860b">schema (policy)</text>
<text text-anchor="middle" x="908" y="-58" font-family="Helvetica,sans-Serif" font-size="9.00" fill="#b8860b">feeds engine</text>
</g>
<!-- eval -->
<g id="node7" class="node">
<title>eval</title>
<polygon fill="#d5e8d4" stroke="#82b366" points="432,-134.7 270,-134.7 270,-93.7 432,-93.7 432,-134.7"/>
<text text-anchor="middle" x="351" y="-122.7" font-family="Helvetica,sans-Serif" font-size="10.00">eval/ &#160;(NO LLM)</text>
<text text-anchor="middle" x="351" y="-111.7" font-family="Helvetica,sans-Serif" font-size="10.00">grade.py · trace_grounding.py</text>
<text text-anchor="middle" x="351" y="-100.7" font-family="Helvetica,sans-Serif" font-size="10.00">coverage_check.py</text>
</g>
<!-- ww_lib -->
<g id="node9" class="node">
<title>ww_lib</title>
<polygon fill="#e1d5e7" stroke="#9673a6" points="1838,-233.2 1729,-233.2 1729,-197.2 1838,-197.2 1838,-233.2"/>
<text text-anchor="middle" x="1783.5" y="-212.7" font-family="Helvetica,sans-Serif" font-size="10.00">lib (engine_runner)</text>
</g>
<!-- ww_cli&#45;&gt;ww_lib -->
<g id="edge9" class="edge">
<title>ww_cli&#45;&gt;ww_lib</title>
<path fill="none" stroke="#9673a6" d="M1451.67,-210.82C1518.83,-211.71 1642.97,-213.35 1718.61,-214.35"/>
<polygon fill="#9673a6" stroke="#9673a6" points="1718.9,-217.86 1728.95,-214.49 1719,-210.86 1718.9,-217.86"/>
</g>
<!-- dashboard -->
<g id="node14" class="node">
<title>dashboard</title>
<polygon fill="#e8f4e8" stroke="#4a8a4a" points="1831,-97.2 1730,-97.2 1730,-45.2 1837,-45.2 1837,-91.2 1831,-97.2"/>
<polyline fill="none" stroke="#4a8a4a" points="1831,-97.2 1831,-91.2 "/>
<polyline fill="none" stroke="#4a8a4a" points="1837,-91.2 1831,-91.2 "/>
<text text-anchor="middle" x="1783.5" y="-85.2" font-family="Helvetica,sans-Serif" font-size="10.00">dashboard.html</text>
<text text-anchor="middle" x="1783.5" y="-74.2" font-family="Helvetica,sans-Serif" font-size="10.00">(self&#45;contained)</text>
<text text-anchor="middle" x="1783.5" y="-63.2" font-family="Helvetica,sans-Serif" font-size="10.00">grouped by repos:</text>
<text text-anchor="middle" x="1783.5" y="-52.2" font-family="Helvetica,sans-Serif" font-size="10.00">GitHub group links</text>
</g>
<!-- ww_cli&#45;&gt;dashboard -->
<g id="edge16" class="edge">
<title>ww_cli&#45;&gt;dashboard</title>
<path fill="none" stroke="#4a8a4a" stroke-width="2" d="M1439.47,-192.13C1468.66,-177.26 1511.89,-156.26 1551,-141.2 1607.15,-119.58 1672.98,-100.23 1720.06,-87.38"/>
<polygon fill="#4a8a4a" stroke="#4a8a4a" stroke-width="2" points="1721.07,-90.73 1729.81,-84.74 1719.24,-83.98 1721.07,-90.73"/>
<text text-anchor="middle" x="1603.5" y="-154" font-family="Helvetica,sans-Serif" font-size="9.00" fill="#2a5a2a">HTML output</text>
<text text-anchor="middle" x="1603.5" y="-144" font-family="Helvetica,sans-Serif" font-size="9.00" fill="#2a5a2a">(repo&#45;branded)</text>
</g>
<!-- user -->
<g id="node15" class="node">
<title>user</title>
<ellipse fill="#d5e8d4" stroke="#82b366" cx="1783.5" cy="-147.2" rx="27" ry="18"/>
<text text-anchor="middle" x="1783.5" y="-144.7" font-family="Helvetica,sans-Serif" font-size="10.00">user</text>
</g>
<!-- ww_cli&#45;&gt;user -->
<g id="edge17" class="edge">
<title>ww_cli&#45;&gt;user</title>
<path fill="none" stroke="#b85450" stroke-width="2" d="M1451.67,-202.41C1528.07,-189.66 1678.17,-164.61 1746.77,-153.16"/>
<polygon fill="#b85450" stroke="#b85450" stroke-width="2" points="1747.77,-156.54 1757.06,-151.45 1746.62,-149.64 1747.77,-156.54"/>
<text text-anchor="middle" x="1603.5" y="-187" font-family="Helvetica,sans-Serif" font-size="9.00" fill="#a02020">cited answer</text>
</g>
<!-- ww_session -->
<g id="node10" class="node">
<title>ww_session</title>
<polygon fill="#e1d5e7" stroke="#9673a6" points="2127,-233.7 2002,-233.7 2002,-192.7 2127,-192.7 2127,-233.7"/>
<text text-anchor="middle" x="2064.5" y="-221.7" font-family="Helvetica,sans-Serif" font-size="10.00">AmplifierSession +</text>
<text text-anchor="middle" x="2064.5" y="-210.7" font-family="Helvetica,sans-Serif" font-size="10.00">custom &#39;loop&#45;pipeline&#39;</text>
<text text-anchor="middle" x="2064.5" y="-199.7" font-family="Helvetica,sans-Serif" font-size="10.00">orchestrator</text>
</g>
<!-- ww_lib&#45;&gt;ww_session -->
<g id="edge10" class="edge">
<title>ww_lib&#45;&gt;ww_session</title>
<path fill="none" stroke="#9673a6" d="M1838.29,-214.81C1881.81,-214.5 1943.5,-214.06 1991.31,-213.72"/>
<polygon fill="#9673a6" stroke="#9673a6" points="1991.63,-217.21 2001.6,-213.64 1991.58,-210.21 1991.63,-217.21"/>
</g>
<!-- ww_dot -->
<g id="node11" class="node">
<title>ww_dot</title>
<polygon fill="#e1d5e7" stroke="#9673a6" points="2376,-233.7 2373,-237.7 2352,-237.7 2349,-233.7 2254,-233.7 2254,-192.7 2376,-192.7 2376,-233.7"/>
<text text-anchor="middle" x="2315" y="-221.7" font-family="Helvetica,sans-Serif" font-size="10.00">.dot pipelines</text>
<text text-anchor="middle" x="2315" y="-210.7" font-family="Helvetica,sans-Serif" font-size="10.00">init / ingest / ask / lint</text>
<text text-anchor="middle" x="2315" y="-199.7" font-family="Helvetica,sans-Serif" font-size="10.00">+ synthesize.dot</text>
</g>
<!-- ww_session&#45;&gt;ww_dot -->
<g id="edge11" class="edge">
<title>ww_session&#45;&gt;ww_dot</title>
<path fill="none" stroke="#9673a6" d="M2127.25,-213.2C2162.59,-213.2 2207.06,-213.2 2243.74,-213.2"/>
<polygon fill="#9673a6" stroke="#9673a6" points="2243.86,-216.7 2253.86,-213.2 2243.86,-209.7 2243.86,-216.7"/>
</g>
<!-- corpus -->
<g id="node13" class="node">
<title>corpus</title>
<path fill="#ffe6cc" stroke="#d79b00" d="M2757,-236.42C2757,-239.26 2723.61,-241.58 2682.5,-241.58 2641.39,-241.58 2608,-239.26 2608,-236.42 2608,-236.42 2608,-189.98 2608,-189.98 2608,-187.14 2641.39,-184.82 2682.5,-184.82 2723.61,-184.82 2757,-187.14 2757,-189.98 2757,-189.98 2757,-236.42 2757,-236.42"/>
<path fill="none" stroke="#d79b00" d="M2757,-236.42C2757,-233.57 2723.61,-231.26 2682.5,-231.26 2641.39,-231.26 2608,-233.57 2608,-236.42"/>
<text text-anchor="middle" x="2682.5" y="-221.7" font-family="Helvetica,sans-Serif" font-size="10.00">corpus/*.md concept pages</text>
<text text-anchor="middle" x="2682.5" y="-210.7" font-family="Helvetica,sans-Serif" font-size="10.00">+ corpus/_archive</text>
<text text-anchor="middle" x="2682.5" y="-199.7" font-family="Helvetica,sans-Serif" font-size="10.00">(OUTPUT)</text>
</g>
<!-- ww_dot&#45;&gt;corpus -->
<g id="edge12" class="edge">
<title>ww_dot&#45;&gt;corpus</title>
<path fill="none" stroke="#9673a6" d="M2376.35,-213.2C2436.72,-213.2 2530.06,-213.2 2597.61,-213.2"/>
<polygon fill="#9673a6" stroke="#9673a6" points="2597.8,-216.7 2607.8,-213.2 2597.8,-209.7 2597.8,-216.7"/>
<text text-anchor="middle" x="2492" y="-226" font-family="Helvetica,sans-Serif" font-size="9.00" fill="#6a4a86">loop&#45;pipeline runs synthesize.dot →</text>
<text text-anchor="middle" x="2492" y="-216" font-family="Helvetica,sans-Serif" font-size="9.00" fill="#6a4a86">writes concept pages + _archive</text>
</g>
<!-- inbox&#45;&gt;ww_cli -->
<g id="edge7" class="edge">
<title>inbox&#45;&gt;ww_cli</title>
<path fill="none" stroke="#d79b00" stroke-dasharray="5,2" d="M1158.39,-345.73C1189.31,-336.3 1225.77,-323.55 1257,-308.2 1299.14,-287.48 1343.35,-256.28 1371.93,-234.67"/>
<polygon fill="#d79b00" stroke="#d79b00" points="1374.09,-237.43 1379.92,-228.58 1369.84,-231.86 1374.09,-237.43"/>
<text text-anchor="middle" x="1228" y="-333" font-family="Helvetica,sans-Serif" font-size="9.00" fill="#b06a00">reads _inbox</text>
</g>
<!-- corpus&#45;&gt;eval -->
<g id="edge8" class="edge">
<title>corpus&#45;&gt;eval</title>
<path fill="none" stroke="#82b366" stroke-dasharray="1,5" d="M2607.92,-190.94C2467.19,-149.61 2149.48,-62.2 1875,-29.2 1405,27.31 1283.37,-16.76 810,-13.2 709.56,-12.44 683.28,2.03 584,-13.2 535.65,-20.62 524.09,-27.24 479,-46.2 450.18,-58.32 419.21,-74.82 395.08,-88.53"/>
<polygon fill="#82b366" stroke="#82b366" points="393.11,-85.62 386.18,-93.64 396.6,-91.7 393.11,-85.62"/>
<text text-anchor="middle" x="1603.5" y="-21" font-family="Helvetica,sans-Serif" font-size="9.00" fill="#5a8a3a">deterministic grading</text>
<text text-anchor="middle" x="1603.5" y="-11" font-family="Helvetica,sans-Serif" font-size="9.00" fill="#5a8a3a">(reads corpus, no LLM)</text>
</g>
<!-- lg_proc -->
<g id="node16" class="node">
<title>lg_proc</title>
<polygon fill="#dae8fc" stroke="#6c8ebf" points="144,-487.2 16,-487.2 16,-451.2 144,-451.2 144,-487.2"/>
<text text-anchor="middle" x="80" y="-472" font-family="Helvetica,sans-Serif" font-size="9.00">repo&#45;weaver component</text>
<text text-anchor="middle" x="80" y="-462" font-family="Helvetica,sans-Serif" font-size="9.00">(deterministic Python)</text>
</g>
<!-- lg_eng -->
<g id="node17" class="node">
<title>lg_eng</title>
<polygon fill="#e1d5e7" stroke="#9673a6" points="413,-487.2 289,-487.2 289,-451.2 413,-451.2 413,-487.2"/>
<text text-anchor="middle" x="351" y="-472" font-family="Helvetica,sans-Serif" font-size="9.00">wiki&#45;weaver component</text>
<text text-anchor="middle" x="351" y="-462" font-family="Helvetica,sans-Serif" font-size="9.00">(external LLM engine)</text>
</g>
<!-- lg_proc&#45;&gt;lg_eng -->
<!-- lg_store -->
<g id="node18" class="node">
<title>lg_store</title>
<path fill="#ffe6cc" stroke="#d79b00" d="M724,-483.93C724,-485.73 710.11,-487.2 693,-487.2 675.89,-487.2 662,-485.73 662,-483.93 662,-483.93 662,-454.47 662,-454.47 662,-452.67 675.89,-451.2 693,-451.2 710.11,-451.2 724,-452.67 724,-454.47 724,-454.47 724,-483.93 724,-483.93"/>
<path fill="none" stroke="#d79b00" d="M724,-483.93C724,-482.12 710.11,-480.65 693,-480.65 675.89,-480.65 662,-482.12 662,-483.93"/>
<text text-anchor="middle" x="693" y="-467" font-family="Helvetica,sans-Serif" font-size="9.00">data store</text>
</g>
<!-- lg_eng&#45;&gt;lg_store -->
<!-- lg_e1 -->
<g id="node19" class="node">
<title>lg_e1</title>
<polygon fill="#ffffff" stroke="transparent" points="1163,-487.2 1014,-487.2 1014,-451.2 1163,-451.2 1163,-487.2"/>
<text text-anchor="middle" x="1088.5" y="-467" font-family="Helvetica,sans-Serif" font-size="9.00">solid = in&#45;process Python call</text>
</g>
<!-- lg_store&#45;&gt;lg_e1 -->
<!-- lg_e2 -->
<g id="node20" class="node">
<title>lg_e2</title>
<polygon fill="#ffffff" stroke="transparent" points="1515,-487.2 1293,-487.2 1293,-451.2 1515,-451.2 1515,-487.2"/>
<text text-anchor="middle" x="1404" y="-467" font-family="Helvetica,sans-Serif" font-size="9.00" fill="#a02020">bold red = subprocess call to external engine</text>
</g>
<!-- lg_e1&#45;&gt;lg_e2 -->
<!-- lg_e3 -->
<g id="node21" class="node">
<title>lg_e3</title>
<polygon fill="#ffffff" stroke="transparent" points="1875,-487.2 1692,-487.2 1692,-451.2 1875,-451.2 1875,-487.2"/>
<text text-anchor="middle" x="1783.5" y="-467" font-family="Helvetica,sans-Serif" font-size="9.00">dashed = file feed (schema / _inbox)</text>
</g>
<!-- lg_e2&#45;&gt;lg_e3 -->
<!-- lg_note -->
<g id="node22" class="node">
<title>lg_note</title>
<polygon fill="#fffbe6" stroke="#d6b656" points="2175,-493.2 1948,-493.2 1948,-445.2 2181,-445.2 2181,-487.2 2175,-493.2"/>
<polyline fill="none" stroke="#d6b656" points="2175,-493.2 2175,-487.2 "/>
<polyline fill="none" stroke="#d6b656" points="2181,-487.2 2175,-487.2 "/>
<text text-anchor="middle" x="2064.5" y="-482" font-family="Helvetica,sans-Serif" font-size="9.00">repo&#45;weaver writes the SCHEMA (policy);</text>
<text text-anchor="middle" x="2064.5" y="-472" font-family="Helvetica,sans-Serif" font-size="9.00">wiki&#45;weaver provides the ENGINE (mechanism).</text>
<text text-anchor="middle" x="2064.5" y="-462" font-family="Helvetica,sans-Serif" font-size="9.00">repo&#45;weaver makes 0 LLM calls — all synthesis</text>
<text text-anchor="middle" x="2064.5" y="-452" font-family="Helvetica,sans-Serif" font-size="9.00">happens across the subprocess boundary.</text>
</g>
<!-- lg_e3&#45;&gt;lg_note -->
</g>
</svg>
