<?xml version="1.0" encoding="UTF-8" standalone="no"?>
<!DOCTYPE svg PUBLIC "-//W3C//DTD SVG 1.1//EN"
 "http://www.w3.org/Graphics/SVG/1.1/DTD/svg11.dtd">
<!-- Generated by graphviz version 2.43.0 (0)
 -->
<!-- Title: leverage_levels Pages: 1 -->
<svg width="600pt" height="618pt"
 viewBox="0.00 0.00 599.50 618.00" xmlns="http://www.w3.org/2000/svg" xmlns:xlink="http://www.w3.org/1999/xlink">
<g id="graph0" class="graph" transform="scale(1 1) rotate(0) translate(4 614)">
<title>leverage_levels</title>
<polygon fill="white" stroke="transparent" points="-4,4 -4,-614 595.5,-614 595.5,4 -4,4"/>
<text text-anchor="middle" x="295.75" y="-592.4" font-family="Helvetica,sans-Serif" font-size="17.00">Four leverage levels — wiki&#45;weaver vs repo&#45;weaver</text>
<text text-anchor="middle" x="295.75" y="-573.4" font-family="Helvetica,sans-Serif" font-size="17.00">portability / reusability of each command surface</text>
<g id="clust6" class="cluster">
<title>cluster_legend</title>
<polygon fill="#ffffff" stroke="#999999" points="108.5,-8 108.5,-80 447.5,-80 447.5,-8 108.5,-8"/>
<text text-anchor="middle" x="207" y="-67.2" font-family="Helvetica,sans-Serif" font-weight="bold" font-size="11.00">Legend — status color coding</text>
</g>
<!-- h_level -->
<g id="node1" class="node">
<title>h_level</title>
<polygon fill="#dae8fc" stroke="#6c8ebf" points="208,-564 89,-564 89,-528 208,-528 208,-564"/>
<text text-anchor="middle" x="148.5" y="-542.9" font-family="Helvetica,sans-Serif" font-weight="bold" font-size="12.00">Leverage Level</text>
</g>
<!-- h_ww -->
<g id="node2" class="node">
<title>h_ww</title>
<polygon fill="#dae8fc" stroke="#6c8ebf" points="360,-564 261,-564 261,-528 360,-528 360,-564"/>
<text text-anchor="middle" x="310.5" y="-549.4" font-family="Helvetica,sans-Serif" font-weight="bold" font-size="12.00">wiki&#45;weaver</text>
<text text-anchor="middle" x="310.5" y="-536.4" font-family="Helvetica,sans-Serif" font-weight="bold" font-size="12.00">(the engine)</text>
</g>
<!-- h_level&#45;&gt;h_ww -->
<!-- l1_desc -->
<g id="node4" class="node">
<title>l1_desc</title>
<polygon fill="#f5f5f5" stroke="#999999" points="214.5,-480 211.5,-484 190.5,-484 187.5,-480 26.5,-480 26.5,-444 214.5,-444 214.5,-480"/>
<text text-anchor="middle" x="120.5" y="-465" font-family="Helvetica,sans-Serif" font-size="10.00">L1 — Standalone .dot files</text>
<text text-anchor="middle" x="120.5" y="-454" font-family="Helvetica,sans-Serif" font-size="10.00">(per&#45;command + shared subgraph)</text>
</g>
<!-- h_level&#45;&gt;l1_desc -->
<!-- h_rw -->
<g id="node3" class="node">
<title>h_rw</title>
<polygon fill="#dae8fc" stroke="#6c8ebf" points="518.5,-564 400.5,-564 400.5,-528 518.5,-528 518.5,-564"/>
<text text-anchor="middle" x="459.5" y="-549.4" font-family="Helvetica,sans-Serif" font-weight="bold" font-size="12.00">repo&#45;weaver</text>
<text text-anchor="middle" x="459.5" y="-536.4" font-family="Helvetica,sans-Serif" font-weight="bold" font-size="12.00">(the front&#45;end)</text>
</g>
<!-- h_ww&#45;&gt;h_rw -->
<!-- l1_ww -->
<g id="node5" class="node">
<title>l1_ww</title>
<polygon fill="#d5e8d4" stroke="#82b366" points="381,-482.5 378,-486.5 357,-486.5 354,-482.5 240,-482.5 240,-441.5 381,-441.5 381,-482.5"/>
<text text-anchor="middle" x="310.5" y="-470.5" font-family="Helvetica,sans-Serif" font-size="10.00">PRESENT</text>
<text text-anchor="middle" x="310.5" y="-459.5" font-family="Helvetica,sans-Serif" font-size="10.00">init / ingest / ask / lint.dot</text>
<text text-anchor="middle" x="310.5" y="-448.5" font-family="Helvetica,sans-Serif" font-size="10.00">+ synthesize.dot</text>
</g>
<!-- h_ww&#45;&gt;l1_ww -->
<!-- l1_rw -->
<g id="node6" class="node">
<title>l1_rw</title>
<polygon fill="#d5e8d4" stroke="#82b366" points="544.5,-488 406.5,-488 406.5,-436 544.5,-436 544.5,-488"/>
<text text-anchor="middle" x="475.5" y="-476" font-family="Helvetica,sans-Serif" font-size="10.00">PRESENT</text>
<text text-anchor="middle" x="475.5" y="-465" font-family="Helvetica,sans-Serif" font-size="10.00">repo&#45;weaver&#45;smoke.dot</text>
<text text-anchor="middle" x="475.5" y="-454" font-family="Helvetica,sans-Serif" font-size="10.00">proven E2E in Resolve</text>
<text text-anchor="middle" x="475.5" y="-443" font-family="Helvetica,sans-Serif" font-size="10.00">dot&#45;graph resolver (DTU)</text>
</g>
<!-- h_rw&#45;&gt;l1_rw -->
<!-- l1_desc&#45;&gt;l1_ww -->
<!-- l2_desc -->
<g id="node7" class="node">
<title>l2_desc</title>
<polygon fill="#f5f5f5" stroke="#999999" points="221,-385 0,-385 0,-344 221,-344 221,-385"/>
<text text-anchor="middle" x="110.5" y="-373" font-family="Helvetica,sans-Serif" font-size="10.00">L2 — Python lib</text>
<text text-anchor="middle" x="110.5" y="-362" font-family="Helvetica,sans-Serif" font-size="10.00">(methods per command; AmplifierSession</text>
<text text-anchor="middle" x="110.5" y="-351" font-family="Helvetica,sans-Serif" font-size="10.00">+ custom orchestrator runs the .dot files)</text>
</g>
<!-- l1_desc&#45;&gt;l2_desc -->
<!-- l1_ww&#45;&gt;l1_rw -->
<!-- l2_ww -->
<g id="node8" class="node">
<title>l2_ww</title>
<polygon fill="#d5e8d4" stroke="#82b366" points="374.5,-382.5 246.5,-382.5 246.5,-346.5 374.5,-346.5 374.5,-382.5"/>
<text text-anchor="middle" x="310.5" y="-367.5" font-family="Helvetica,sans-Serif" font-size="10.00">PRESENT</text>
<text text-anchor="middle" x="310.5" y="-356.5" font-family="Helvetica,sans-Serif" font-size="10.00">lib.py + engine_runner</text>
</g>
<!-- l1_ww&#45;&gt;l2_ww -->
<!-- l2_rw -->
<g id="node9" class="node">
<title>l2_rw</title>
<polygon fill="#d5e8d4" stroke="#82b366" points="591.5,-396 399.5,-396 399.5,-333 591.5,-333 591.5,-396"/>
<text text-anchor="middle" x="495.5" y="-384" font-family="Helvetica,sans-Serif" font-size="10.00">PRESENT</text>
<text text-anchor="middle" x="495.5" y="-373" font-family="Helvetica,sans-Serif" font-size="10.00">__init__ exports public API:</text>
<text text-anchor="middle" x="495.5" y="-362" font-family="Helvetica,sans-Serif" font-size="10.00">init / weave / weave_multi /</text>
<text text-anchor="middle" x="495.5" y="-351" font-family="Helvetica,sans-Serif" font-size="10.00">replay_windows / ask / materialize /</text>
<text text-anchor="middle" x="495.5" y="-340" font-family="Helvetica,sans-Serif" font-size="10.00">sync_corpus / discover_repos</text>
</g>
<!-- l1_rw&#45;&gt;l2_rw -->
<!-- l2_desc&#45;&gt;l2_ww -->
<!-- l3_desc -->
<g id="node10" class="node">
<title>l3_desc</title>
<polygon fill="#f5f5f5" stroke="#999999" points="213.5,-290.5 21.5,-290.5 21.5,-254.5 213.5,-254.5 213.5,-290.5"/>
<text text-anchor="middle" x="117.5" y="-275.5" font-family="Helvetica,sans-Serif" font-size="10.00">L3 — Amplifier tool modules</text>
<text text-anchor="middle" x="117.5" y="-264.5" font-family="Helvetica,sans-Serif" font-size="10.00">(commands as agent&#45;callable tools)</text>
</g>
<!-- l2_desc&#45;&gt;l3_desc -->
<!-- l2_ww&#45;&gt;l2_rw -->
<!-- l3_ww -->
<g id="node11" class="node">
<title>l3_ww</title>
<polygon fill="#d5e8d4" stroke="#82b366" points="382,-293 239,-293 239,-252 382,-252 382,-293"/>
<text text-anchor="middle" x="310.5" y="-281" font-family="Helvetica,sans-Serif" font-size="10.00">PRESENT</text>
<text text-anchor="middle" x="310.5" y="-270" font-family="Helvetica,sans-Serif" font-size="10.00">bundle.md + modules/</text>
<text text-anchor="middle" x="310.5" y="-259" font-family="Helvetica,sans-Serif" font-size="10.00">tool&#45;wiki&#45;weaver (4 tools)</text>
</g>
<!-- l2_ww&#45;&gt;l3_ww -->
<!-- l3_rw -->
<g id="node12" class="node">
<title>l3_rw</title>
<polygon fill="#d5e8d4" stroke="#82b366" points="551.5,-293 407.5,-293 407.5,-252 551.5,-252 551.5,-293"/>
<text text-anchor="middle" x="479.5" y="-281" font-family="Helvetica,sans-Serif" font-size="10.00">PRESENT</text>
<text text-anchor="middle" x="479.5" y="-270" font-family="Helvetica,sans-Serif" font-size="10.00">bundle.md + modules/</text>
<text text-anchor="middle" x="479.5" y="-259" font-family="Helvetica,sans-Serif" font-size="10.00">tool&#45;repo&#45;weaver (3 tools)</text>
</g>
<!-- l2_rw&#45;&gt;l3_rw -->
<!-- l3_desc&#45;&gt;l3_ww -->
<!-- l4_desc -->
<g id="node13" class="node">
<title>l4_desc</title>
<polygon fill="#f5f5f5" stroke="#999999" points="207,-212 124,-212 124,-176 207,-176 207,-212"/>
<text text-anchor="middle" x="165.5" y="-191.5" font-family="Helvetica,sans-Serif" font-size="10.00">L4 — Thin CLI</text>
</g>
<!-- l3_desc&#45;&gt;l4_desc -->
<!-- l3_ww&#45;&gt;l3_rw -->
<!-- l4_ww -->
<g id="node14" class="node">
<title>l4_ww</title>
<polygon fill="#d5e8d4" stroke="#82b366" points="341,-212 280,-212 280,-176 341,-176 341,-212"/>
<text text-anchor="middle" x="310.5" y="-191.5" font-family="Helvetica,sans-Serif" font-size="10.00">PRESENT</text>
</g>
<!-- l3_ww&#45;&gt;l4_ww -->
<!-- l4_rw -->
<g id="node15" class="node">
<title>l4_rw</title>
<polygon fill="#d5e8d4" stroke="#82b366" points="468,-212 407,-212 407,-176 468,-176 468,-212"/>
<text text-anchor="middle" x="437.5" y="-191.5" font-family="Helvetica,sans-Serif" font-size="10.00">PRESENT</text>
</g>
<!-- l3_rw&#45;&gt;l4_rw -->
<!-- l4_desc&#45;&gt;l4_ww -->
<!-- note -->
<g id="node16" class="node">
<title>note</title>
<polygon fill="#fffbe6" stroke="#d6b656" points="322.5,-136 2.5,-136 2.5,-92 328.5,-92 328.5,-130 322.5,-136"/>
<polyline fill="none" stroke="#d6b656" points="322.5,-136 322.5,-130 "/>
<polyline fill="none" stroke="#d6b656" points="328.5,-130 322.5,-130 "/>
<text text-anchor="middle" x="165.5" y="-123.2" font-family="Helvetica,sans-Serif" font-size="11.00">DRY core lives in the .dot files (wiki&#45;weaver).</text>
<text text-anchor="middle" x="165.5" y="-111.2" font-family="Helvetica,sans-Serif" font-size="11.00">repo&#45;weaver&#39;s core is deterministic Python (git → docs),</text>
<text text-anchor="middle" x="165.5" y="-99.2" font-family="Helvetica,sans-Serif" font-size="11.00">a weaker fit for .dot pipelines.</text>
</g>
<!-- l4_desc&#45;&gt;note -->
<!-- l4_ww&#45;&gt;l4_rw -->
<!-- lg_present -->
<g id="node17" class="node">
<title>lg_present</title>
<polygon fill="#d5e8d4" stroke="#82b366" points="214.5,-52 116.5,-52 116.5,-16 214.5,-16 214.5,-52"/>
<text text-anchor="middle" x="165.5" y="-31.8" font-family="Helvetica,sans-Serif" font-size="9.00">PRESENT &#160;(green)</text>
</g>
<!-- note&#45;&gt;lg_present -->
<!-- lg_partial -->
<g id="node18" class="node">
<title>lg_partial</title>
<polygon fill="#fff2cc" stroke="#d6b656" points="333,-52 240,-52 240,-16 333,-16 333,-52"/>
<text text-anchor="middle" x="286.5" y="-31.8" font-family="Helvetica,sans-Serif" font-size="9.00">PARTIAL &#160;(yellow)</text>
</g>
<!-- lg_present&#45;&gt;lg_partial -->
<!-- lg_absent -->
<g id="node19" class="node">
<title>lg_absent</title>
<polygon fill="#f8cecc" stroke="#b85450" points="439,-52 358,-52 358,-16 439,-16 439,-52"/>
<text text-anchor="middle" x="398.5" y="-31.8" font-family="Helvetica,sans-Serif" font-size="9.00">ABSENT &#160;(red)</text>
</g>
<!-- lg_partial&#45;&gt;lg_absent -->
</g>
</svg>
